<?xml version="1.0" encoding="UTF-8"?><svg id="Layer_2" xmlns="http://www.w3.org/2000/svg" viewBox="0 0 16 16"><defs><style>.cls-1{fill:#fff;}.cls-2{fill:#2bb673;}</style></defs><g id="Layer_1-2"><rect class="cls-2" width="16" height="16" rx="4" ry="4"/><path class="cls-1" d="M5.02,2.96c-.41,0-.73.23-.98.7s-.37.98-.37,1.54c0,.59.08,1.11.24,1.56s.31.79.44,1.02l1.49-.31c.12-.3.24-.64.36-1.02s.18-.8.18-1.25c0-.56-.12-1.07-.37-1.54s-.58-.7-.98-.7ZM5.76,10.24c.17,0,.32-.07.43-.2s.18-.31.18-.55c0-.16-.04-.32-.11-.49s-.14-.32-.22-.45l-1.3.28c0,.37.08.7.24.98.16.28.42.42.78.42ZM10.98,5.76c-.41,0-.73.23-.98.7s-.37.98-.37,1.54c0,.45.06.86.18,1.24s.24.72.36,1.03l1.49.31c.14-.22.28-.56.44-1.01s.24-.97.24-1.57c0-.56-.12-1.07-.37-1.54s-.58-.7-.98-.7ZM10.24,13.04c.36,0,.62-.14.78-.42s.24-.61.24-.98l-1.3-.28c-.07.13-.14.28-.22.45s-.11.33-.11.49c0,.19.06.36.17.51s.26.23.44.23ZM5.76,11.36c-.7,0-1.23-.27-1.59-.8s-.53-1.13-.52-1.79l-.24-.38c-.1-.16-.26-.52-.5-1.08s-.35-1.27-.35-2.12c0-.96.23-1.76.69-2.4s1.04-.96,1.75-.96c.77,0,1.37.35,1.8,1.06s.64,1.47.64,2.3c0,.54-.07,1.04-.22,1.5s-.27.83-.38,1.11l.11.18c.07.13.17.34.3.62s.19.58.19.89c0,.53-.16.98-.48,1.33-.32.35-.73.53-1.21.53ZM10.24,14.16c-.49,0-.89-.18-1.21-.53-.32-.35-.48-.8-.48-1.33,0-.31.06-.6.19-.89.13-.28.23-.49.3-.62l.11-.18c-.11-.28-.24-.65-.38-1.11s-.22-.96-.22-1.5c0-.83.21-1.6.64-2.3s1.03-1.06,1.8-1.06c.71,0,1.29.32,1.75.96s.69,1.44.69,2.4c0,.85-.12,1.55-.35,2.11s-.4.91-.5,1.07l-.24.39c0,.66-.17,1.26-.52,1.79s-.88.8-1.58.8Z"/></g></svg>